<svg data-name="Layer 1" xmlns="http://www.w3.org/2000/svg" viewBox="0 0 20.3 20.3"><circle cx="10.15" cy="10.15" r="10.15" fill="#fff"/><path fill="#231f20" d="M14.4 16.1H5.93a1.65 1.65 0 0 1-1.64-1.63V5.83A1.65 1.65 0 0 1 5.93 4.2h8.47A1.65 1.65 0 0 1 16 5.83v8.64a1.65 1.65 0 0 1-1.6 1.63zM5.93 5.32a.51.51 0 0 0-.53.49v8.66a.5.5 0 0 0 .5.5h8.5a.5.5 0 0 0 .51-.49V5.83a.51.51 0 0 0-.51-.51H5.93z"/><path d="M9.85 13.88a3.61 3.61 0 1 1 3.61-3.61 3.61 3.61 0 0 1-3.61 3.61zm0-6.09a2.49 2.49 0 1 0 2.48 2.5 2.48 2.48 0 0 0-2.48-2.5zm4.43-.99a.73.73 0 0 1-.72.72.73.73 0 0 1-.72-.72.72.72 0 0 1 .69-.75.72.72 0 0 1 .72.72z"/></svg>