<svg id="Layer_1" data-name="Layer 1" xmlns="http://www.w3.org/2000/svg" viewBox="0 0 20.3 20.3"><defs><style>.cls-1{fill:#1d1d1b;}.cls-2{fill:#fff;}</style></defs><title>inst_black</title><circle class="cls-1" cx="10.15" cy="10.15" r="10.15"/><path class="cls-2" d="M14.4,16.1H5.93a1.65,1.65,0,0,1-1.64-1.63V5.83A1.65,1.65,0,0,1,5.93,4.2H14.4A1.65,1.65,0,0,1,16,5.83v8.64A1.65,1.65,0,0,1,14.4,16.1ZM5.93,5.32a.51.51,0,0,0-.53.49v8.66a.5.5,0,0,0,.5.5h8.5a.5.5,0,0,0,.51-.49h0V5.83a.51.51,0,0,0-.51-.51H5.93Z"/><path class="cls-2" d="M9.85,13.88a3.61,3.61,0,1,1,3.61-3.61h0A3.61,3.61,0,0,1,9.85,13.88Zm0-6.09a2.49,2.49,0,1,0,2.48,2.5v0A2.48,2.48,0,0,0,9.85,7.79Z"/><path class="cls-2" d="M14.28,6.8a.73.73,0,0,1-.72.72h0a.73.73,0,0,1-.72-.72h0a.72.72,0,0,1,.69-.75h0a.72.72,0,0,1,.72.72Z"/></svg>