<svg id="Layer_1" data-name="Layer 1" xmlns="http://www.w3.org/2000/svg" viewBox="0 0 20.3 20.3"><defs><style>.cls-2{fill:#fff}</style></defs><circle cx="10.15" cy="10.15" r="10.15" fill="#d1232a"/><path class="cls-2" d="M17 16.05H8.53a1.64 1.64 0 0 1-1.64-1.63V5.78a1.64 1.64 0 0 1 1.64-1.63H17a1.64 1.64 0 0 1 1.64 1.63v8.64A1.64 1.64 0 0 1 17 16.05zM8.53 5.27a.51.51 0 0 0-.53.51v8.64a.5.5 0 0 0 .51.5H17a.5.5 0 0 0 .51-.5V5.78a.51.51 0 0 0-.51-.51z" transform="translate(-2.6 .05)"/><path class="cls-2" d="M12.45 13.83a3.61 3.61 0 1 1 3.61-3.61 3.61 3.61 0 0 1-3.61 3.61zm0-6.09a2.49 2.49 0 1 0 2.48 2.48 2.48 2.48 0 0 0-2.48-2.48zm4.43-.99a.73.73 0 0 1-.72.72.73.73 0 0 1-.72-.72.72.72 0 0 1 .69-.75.72.72 0 0 1 .72.72z" transform="translate(-2.6 .05)"/></svg>