<svg data-name="Layer 1" xmlns="http://www.w3.org/2000/svg" viewBox="0 0 20.3 20.3"><circle cx="10.15" cy="10.15" r="10.15" fill="#d1232a"/><path d="M10.15 10.25a4 4 0 1 0-4-4 4 4 0 0 0 4 4zm0-5.9a2 2 0 1 1-2 2 1.94 1.94 0 0 1 2-2zm4.6 6.4c-.2-.5-.9-.8-1.7-.2a5.12 5.12 0 0 1-5.8 0 1.2 1.2 0 0 0-1.8.2c-.4.8.1 1.2 1.1 1.8a5.23 5.23 0 0 0 2.8.8l-.6.7-2.4 2.4a.85.85 0 0 0 0 1.3l.1.1a.85.85 0 0 0 1.3 0l2.4-2.4 2.4 2.4a.85.85 0 0 0 1.3 0l.1-.1a.85.85 0 0 0 0-1.3l-2.4-2.4-.6-.6a8 8 0 0 0 2.8-.8c.9-.7 1.4-1.1 1-1.9z" fill="#fff"/></svg>