<svg id="Layer_1" data-name="Layer 1" xmlns="http://www.w3.org/2000/svg" viewBox="0 0 20.3 20.3"><defs><style>.cls-1{fill:#1d1d1b;}.cls-2{fill:#fff;}</style></defs><title>ok_black</title><circle class="cls-1" cx="10.15" cy="10.15" r="10.15"/><path class="cls-2" d="M10.15,10.25a4,4,0,1,0-4-4A4,4,0,0,0,10.15,10.25Zm0-5.9a2,2,0,1,1-2,2,1.94,1.94,0,0,1,1.88-2Zm4.6,6.4c-.2-.5-.9-.8-1.7-.2a5.12,5.12,0,0,1-5.8,0,1.2,1.2,0,0,0-1.7.07,1.47,1.47,0,0,0-.1.13c-.4.8.1,1.2,1.1,1.8a5.24,5.24,0,0,0,2.8.8l-.6.7-2.4,2.4a.85.85,0,0,0-.1,1.2l.1.1.1.1a.85.85,0,0,0,1.2.1l.1-.1,2.4-2.4,2.4,2.4a.85.85,0,0,0,1.2.1.94.94,0,0,0,.1-.1l.1-.1a.85.85,0,0,0,.1-1.2.94.94,0,0,0-.1-.1l-2.4-2.4-.6-.6a7.89,7.89,0,0,0,2.8-.8C14.65,12,15.15,11.55,14.75,10.75Z"/></svg>