<svg data-name="Layer 1" xmlns="http://www.w3.org/2000/svg" viewBox="0 0 20.27 20.27"><circle cx="10.14" cy="10.14" r="10.14" fill="#fff"/><path fill="#231f20" d="M10.14 10.25a4 4 0 1 0-4-4 4 4 0 0 0 4 4zm0-5.9a2 2 0 1 1-2 2 1.94 1.94 0 0 1 1.88-2zm4.6 6.4c-.2-.5-.9-.8-1.7-.2a5.12 5.12 0 0 1-5.8 0 1.2 1.2 0 0 0-1.7.07 1.47 1.47 0 0 0-.1.13c-.4.8.1 1.2 1.1 1.8a5.24 5.24 0 0 0 2.8.8l-.6.7-2.4 2.4a.85.85 0 0 0-.1 1.2l.1.1.1.1a.85.85 0 0 0 1.2.1l.1-.1 2.4-2.4 2.4 2.4a.85.85 0 0 0 1.2.1.94.94 0 0 0 .1-.1l.1-.1a.85.85 0 0 0 .1-1.2.94.94 0 0 0-.1-.1l-2.4-2.4-.6-.6a7.89 7.89 0 0 0 2.8-.8c.9-.65 1.4-1.1 1-1.9z"/></svg>