<svg data-name="Layer 1" xmlns="http://www.w3.org/2000/svg" viewBox="0 0 20.3 20.3"><circle cx="10.15" cy="10.15" r="10.15" fill="#d1232a"/><path d="M16.62 5.05L14.4 15.87a.78.78 0 0 1-1.14.39l-5-3.82-1.81-.85-3.05-1s-.48-.19-.48-.57.57-.57.57-.57l12.1-4.77c.08.05 1.03-.43 1.03.37z" fill="#fff"/><path d="M7.95 15.78s-.19 0-.28-.57-1.14-3.62-1.14-3.62l7.33-4.67s.38-.29.38 0c0 0 .1 0-.19.28s-5.71 5.15-5.71 5.15" fill="#e6e7e8"/><path d="M10.24 13.87l-2 1.81s-.19.1-.29 0l.39-3.33" fill="#d1d3d4"/></svg>