<svg id="Layer_1" data-name="Layer 1" xmlns="http://www.w3.org/2000/svg" viewBox="0 0 20.3 20.3"><defs><style>.cls-1{fill:#1d1d1b;}.cls-2{fill:#fff;}.cls-3{fill:#e6e7e8;}.cls-4{fill:#d1d3d4;}</style></defs><title>tel_black</title><circle class="cls-1" cx="10.15" cy="10.15" r="10.15"/><path class="cls-2" d="M16.62,5.05,14.4,15.87a.78.78,0,0,1-1,.46l-.14-.07-5-3.82-1.81-.85-3.05-1s-.48-.19-.48-.57.57-.57.57-.57l12.1-4.77C15.67,4.73,16.62,4.25,16.62,5.05Z"/><path class="cls-3" d="M8,15.78s-.19,0-.28-.57-1.14-3.62-1.14-3.62l7.33-4.67s.38-.29.38,0c0,0,.1,0-.19.28s-5.71,5.15-5.71,5.15"/><path class="cls-4" d="M10.24,13.87l-2,1.81s-.19.1-.29,0l.39-3.33"/></svg>