<svg data-name="Layer 1" xmlns="http://www.w3.org/2000/svg" viewBox="0 0 20.28 20.28"><circle cx="10.14" cy="10.14" r="10.14" fill="#fff"/><path d="M17.29 4.42l-2.28 11.4a.83.83 0 0 1-1.21.4l-5.19-4-1.9-.9-3.2-1.1s-.5-.21-.5-.6.6-.6.6-.6l12.68-5.01c0 .11 1-.39 1 .41z" fill="#231f20"/><path d="M8.2 15.72s-.2 0-.3-.6-1.2-3.8-1.2-3.8l7.7-4.9s.39-.3.39 0c0 0 .11 0-.2.3s-6 5.4-6 5.4" stroke="#231f20" stroke-miterlimit="10" stroke-width=".5" fill="#e6e7e8"/><path d="M10.6 13.72l-2.1 1.9s-.2.1-.3 0l.4-3.5" fill="#d1d3d4" stroke="#231f20" stroke-miterlimit="10" stroke-width=".5"/></svg>