<svg id="Layer_1" data-name="Layer 1" xmlns="http://www.w3.org/2000/svg" viewBox="0 0 20.3 20.3"><defs><style>.cls-1{fill:#1d1d1b;}.cls-2{fill:#fff;}</style></defs><title>twitter_black</title><circle class="cls-1" cx="10.15" cy="10.15" r="10.15"/><path class="cls-2" d="M17,5.89a5.47,5.47,0,0,1-1.62.44,2.85,2.85,0,0,0,1.25-1.56,5.61,5.61,0,0,1-1.8.69A2.82,2.82,0,0,0,10,7.39a2.73,2.73,0,0,0,.07.64A8,8,0,0,1,4.23,5.08a2.83,2.83,0,0,0,.88,3.77,2.88,2.88,0,0,1-1.28-.36v0A2.84,2.84,0,0,0,6.09,11.3a3,3,0,0,1-.74.09,2.32,2.32,0,0,1-.53-.05,2.82,2.82,0,0,0,2.63,2A5.62,5.62,0,0,1,4,14.5c-.23,0-.45,0-.67,0A8,8,0,0,0,7.6,15.73a8,8,0,0,0,8-8V7.35A5.59,5.59,0,0,0,17,5.89Zm0,0"/></svg>