<svg data-name="Layer 1" xmlns="http://www.w3.org/2000/svg" viewBox="0 0 20.3 20.3"><circle cx="10.15" cy="10.15" r="10.15" fill="#d1232a"/><path d="M14.7 14.45a3.22 3.22 0 0 1-1.8-1.2c-.2-.3-.6-.9-1.1-.8s-.3 1.2-.6 1.7-1.1.3-1.8.2a5.43 5.43 0 0 1-3.9-2.4 19.47 19.47 0 0 1-2.4-3.9 4.28 4.28 0 0 1-.5-1.6c.3-.3.9-.2 1.4-.2s1.2-.1 1.5.1.4.6.6 1a13.24 13.24 0 0 0 1.2 2c.2.3.5.8.8.7s.4-.9.4-1.4a4.16 4.16 0 0 0-.15-1.7c-.2-.3-.5-.3-.8-.5.3-.5.9-.6 1.8-.6.7 0 1.7-.1 2 .4s.1 1.3.1 2-.1 1.5.3 1.8c.4 0 .6-.4.8-.7a9.63 9.63 0 0 0 1.2-2c.2-.3.3-.9.6-1s1.1 0 1.7 0 1.4-.1 1.6.2-.3 1-.4 1.2a15.63 15.63 0 0 1-1.4 1.9c-.2.3-.6.7-.6 1.1s.3.6.6.8l1.4 1.4a2 2 0 0 1 .5.9c-.35.9-2.35.4-3.05.6z" fill="#fff"/></svg>