<svg id="Layer_1" data-name="Layer 1" xmlns="http://www.w3.org/2000/svg" viewBox="0 0 20.3 20.3"><defs><style>.cls-1{fill:#1d1d1b;}.cls-2{fill:#fff;}</style></defs><title>vk_black</title><circle class="cls-1" cx="10.15" cy="10.15" r="10.15"/><path class="cls-2" d="M14.7,14.45h0a3.19,3.19,0,0,1-1.8-1.2c-.2-.3-.6-.9-1.1-.8s-.3,1.2-.6,1.7-1.1.3-1.8.2A5.43,5.43,0,0,1,5.5,12a19.29,19.29,0,0,1-2.4-3.9,4.33,4.33,0,0,1-.5-1.6c.3-.3.9-.2,1.4-.2s1.2-.1,1.5.1.4.6.6,1a13.08,13.08,0,0,0,1.2,2c.2.3.5.8.8.7s.4-.9.4-1.4A4.08,4.08,0,0,0,8.35,7c-.2-.3-.5-.3-.8-.5.3-.5.9-.6,1.8-.6.7,0,1.7-.1,2,.4s.1,1.3.1,2-.1,1.5.3,1.8c.4,0,.6-.4.8-.7a9.92,9.92,0,0,0,1.2-2c.2-.3.3-.9.6-1a9.48,9.48,0,0,1,1.7,0c.6,0,1.4-.1,1.6.2s-.3,1-.4,1.2a16.31,16.31,0,0,1-1.4,1.9c-.2.3-.6.7-.6,1.1s.3.6.6.8l1.4,1.4a2.05,2.05,0,0,1,.5.9C17.4,14.75,15.4,14.25,14.7,14.45Z"/></svg>