<svg data-name="Layer 1" xmlns="http://www.w3.org/2000/svg" viewBox="0 0 20.28 20.28"><circle cx="10.14" cy="10.14" r="10.14" fill="#fff"/><path fill="#231f20" d="M14.67 14.44a3.24 3.24 0 0 1-1.8-1.2c-.2-.3-.6-.9-1.1-.8s-.3 1.2-.6 1.7-1.1.3-1.8.2a5.46 5.46 0 0 1-3.9-2.4 19.29 19.29 0 0 1-2.4-3.93 4.33 4.33 0 0 1-.5-1.6c.3-.3.9-.2 1.4-.2s1.2-.1 1.5.1.4.6.6 1a13.08 13.08 0 0 0 1.2 2c.2.3.5.8.8.7s.4-.9.4-1.4a4.08 4.08 0 0 0-.15-1.7c-.2-.3-.5-.3-.8-.5.3-.5.9-.6 1.8-.6.7 0 1.7-.1 2 .4s.1 1.3.1 2-.1 1.5.3 1.8c.4 0 .6-.4.8-.7a9.92 9.92 0 0 0 1.2-2c.2-.3.3-.9.6-1a9.48 9.48 0 0 1 1.7 0c.6 0 1.4-.1 1.6.2s-.3 1-.4 1.2a17.2 17.2 0 0 1-1.4 1.9c-.2.3-.6.7-.6 1.1s.3.6.6.8l1.4 1.4a2.05 2.05 0 0 1 .5.9c-.35.93-2.35.43-3.05.63z"/></svg>