<?xml version="1.0" encoding="utf-8"?>
<!-- Generator: Adobe Illustrator 19.2.1, SVG Export Plug-In . SVG Version: 6.00 Build 0)  -->
<svg version="1.1" id="Layer_1" xmlns="http://www.w3.org/2000/svg" xmlns:xlink="http://www.w3.org/1999/xlink" x="0px" y="0px"
	 viewBox="0 0 25.5 20.3" style="enable-background:new 0 0 25.5 20.3;" xml:space="preserve">
<style type="text/css">
	.st0{fill:#3C5A98;}
	.st1{fill-rule:evenodd;clip-rule:evenodd;fill:#FFFFFF;}
</style>
<path class="st0" d="M25.5,17.3c0,0,0,3-3,3H3c0,0-3,0-3-3V3c0,0,0-3,3-3h19.5c0,0,3,0,3,3V17.3z"/>
<path class="st1" d="M10.8,7.7c0,0,0-0.3,0-2.2c0-1.9,1.9-2.5,3.3-2.5c1.4,0,2.1,0.2,2.1,0.2l-0.3,2.2c0,0-2.3-0.9-2.3,0.9
	c0,1.8,0,1.3,0,1.3h2.3l-0.2,2.1h-2.1v7.4h-2.7V9.9H9.3V7.7H10.8z"/>
</svg>
