<?xml version="1.0" encoding="utf-8"?>
<!-- Generator: Adobe Illustrator 19.2.1, SVG Export Plug-In . SVG Version: 6.00 Build 0)  -->
<svg version="1.1" id="Layer_1" xmlns="http://www.w3.org/2000/svg" xmlns:xlink="http://www.w3.org/1999/xlink" x="0px" y="0px"
	 viewBox="0 0 25.5 20.3" style="enable-background:new 0 0 25.5 20.3;" xml:space="preserve">
<style type="text/css">
	.st0{fill:#ED812B;}
	.st1{fill:#FFFFFF;}
</style>
<path class="st0" d="M25.5,17.3c0,0,0,3-3,3H3c0,0-3,0-3-3V3c0,0,0-3,3-3h19.5c0,0,3,0,3,3V17.3z"/>
<path class="st1" d="M12.8,10.2c2.2,0,4-1.8,4-4c0-2.2-1.8-4-4-4c-2.2,0-4,1.8-4,4C8.8,8.4,10.5,10.2,12.8,10.2z M12.8,4.3
	c1.1,0,2,0.9,2,2c0,1.1-0.9,2-2,2s-2-0.9-2-2C10.8,5.1,11.7,4.3,12.8,4.3z M17.4,10.7c-0.2-0.5-0.9-0.8-1.7-0.2
	c-1.1,0.9-2.9,0.9-2.9,0.9s-1.8,0-2.9-0.9C9,9.9,8.4,10.3,8.1,10.7c-0.4,0.8,0.1,1.2,1.1,1.8c0.9,0.6,2,0.8,2.8,0.8L11.4,14
	c-0.9,0.9-1.8,1.8-2.4,2.4c-0.4,0.4-0.4,0.9,0,1.3l0.1,0.1c0.4,0.4,0.9,0.4,1.3,0l2.4-2.4c0.9,0.9,1.8,1.8,2.4,2.4
	c0.4,0.4,0.9,0.4,1.3,0l0.1-0.1c0.4-0.4,0.4-0.9,0-1.3L14.2,14l-0.6-0.6c0.8-0.1,1.9-0.3,2.8-0.8C17.3,11.9,17.8,11.5,17.4,10.7z"/>
</svg>
