<?xml version="1.0" encoding="utf-8"?>
<!-- Generator: Adobe Illustrator 19.2.1, SVG Export Plug-In . SVG Version: 6.00 Build 0)  -->
<svg version="1.1" id="Layer_1" xmlns="http://www.w3.org/2000/svg" xmlns:xlink="http://www.w3.org/1999/xlink" x="0px" y="0px"
	 viewBox="0 0 25.5 20.3" style="enable-background:new 0 0 25.5 20.3;" xml:space="preserve">
<style type="text/css">
	.st0{fill:url(#SVGID_1_);}
	.st1{fill:#FFFFFF;}
	.st2{fill:#C6DEEA;}
	.st3{fill:#A7C8DD;}
</style>
<linearGradient id="SVGID_1_" gradientUnits="userSpaceOnUse" x1="12.7559" y1="1.059097e-004" x2="12.7559" y2="20.1852">
	<stop  offset="0" style="stop-color:#2EBEE7"/>
	<stop  offset="1" style="stop-color:#12A8DB"/>
</linearGradient>
<path class="st0" d="M25.5,17.3c0,0,0,3-3,3H3c0,0-3,0-3-3V3c0,0,0-3,3-3h19.5c0,0,3,0,3,3V17.3z"/>
<g>
	<path class="st1" d="M19.9,4.4l-2.3,11.4c0,0-0.3,0.8-1.2,0.4l-5.2-4l-1.9-0.9l-3.2-1.1c0,0-0.5-0.2-0.5-0.6c0-0.4,0.6-0.6,0.6-0.6
		l12.7-5C18.9,4.1,19.9,3.6,19.9,4.4z"/>
	<path class="st2" d="M10.8,15.7c0,0-0.2,0-0.3-0.6c-0.2-0.6-1.2-3.8-1.2-3.8L17,6.4c0,0,0.4-0.3,0.4,0c0,0,0.1,0-0.2,0.3
		c-0.2,0.2-6,5.4-6,5.4"/>
	<path class="st3" d="M13.2,13.7l-2.1,1.9c0,0-0.2,0.1-0.3,0l0.4-3.5"/>
</g>
</svg>
