<?xml version="1.0" encoding="utf-8"?>
<!-- Generator: Adobe Illustrator 18.1.0, SVG Export Plug-In . SVG Version: 6.00 Build 0)  -->
<svg version="1.1" id="Layer_1" xmlns="http://www.w3.org/2000/svg" xmlns:xlink="http://www.w3.org/1999/xlink" x="0px" y="0px"
	 viewBox="0 0 25.5 20.3" style="enable-background:new 0 0 25.5 20.3;" xml:space="preserve">
<style type="text/css">
	.st0{fill-rule:evenodd;clip-rule:evenodd;fill:#7C529D;}
	.st1{fill:none;stroke:#FFFFFF;stroke-width:0.7087;stroke-miterlimit:10;}
	.st2{fill-rule:evenodd;clip-rule:evenodd;fill:#FAF9FB;}
	.st3{fill-rule:evenodd;clip-rule:evenodd;fill:#EFE9F3;}
</style>
<path class="st0" d="M25.5,17.3c0,0,0,3-3,3H3c0,0-3,0-3-3V3c0,0,0-3,3-3h19.5c0,0,3,0,3,3V17.3z"/>
<path class="st1" d="M19.3,14.4c1.4-0.6,2.3-1.7,2.5-3.3c0.2-1.2,0-2.9,0-4c-0.2-2-1.5-3.5-3.5-3.9C16.7,2.8,10.9,2.5,7.6,3
	C5.4,3.4,4.1,4.7,3.7,6.9c-0.2,1.1-0.1,2.2,0,3.2c0.2,2.5,1.7,3.7,3.9,4.2c0.6,0.1,1.3,0.2,1.9,0.2c0.5,0,0.6,0.2,0.6,0.7
	c0,0.6,0,1.2,0,1.8c0,0.2-0.1,0.4,0.1,0.4c0.2,0.1,0.3-0.1,0.4-0.2c0.6-0.7,1.3-1.4,1.9-2.1c0.1-0.2,0.3-0.3,0.5-0.3
	C15.6,15,18,14.9,19.3,14.4z"/>
<g>
	<path class="st2" d="M14.6,13.2c-0.1,0-0.3,0-0.4-0.1c-2.6-1.1-4.5-3-5.6-5.7c-0.4-0.9,0-1.6,0.9-2c0.2-0.1,0.3-0.1,0.5,0
		c0.4,0.1,1.4,1.5,1.4,1.9c0,0.3-0.2,0.5-0.4,0.6c-0.4,0.3-0.4,0.6-0.2,1c0.4,0.9,1,1.5,1.9,1.8c0.3,0.1,0.6,0.1,0.8-0.2
		c0.4-0.6,0.8-0.5,1.3-0.2c0.3,0.2,0.5,0.4,0.7,0.5c0.3,0.3,0.7,0.5,0.5,1C15.9,12.6,15.2,13.2,14.6,13.2z"/>
	<path class="st3" d="M12.7,5.3c1.8,0.1,3.4,1.8,3.4,3.6c0,0.2,0.1,0.4-0.2,0.4c-0.3,0-0.2-0.3-0.2-0.5c-0.2-1.9-1.1-2.9-3.1-3.1
		c-0.2,0-0.4,0-0.4-0.2C12.3,5.2,12.6,5.3,12.7,5.3z"/>
	<path class="st3" d="M15.2,8.5c0,0.1,0.1,0.4-0.2,0.4c-0.3,0-0.2-0.2-0.3-0.4c-0.2-1.2-0.6-1.6-1.8-1.9c-0.2,0-0.4,0-0.4-0.3
		c0-0.3,0.3-0.2,0.5-0.1C14.2,6.4,15.2,7.4,15.2,8.5z"/>
	<path class="st3" d="M14.3,8.3c0,0.1,0,0.3-0.2,0.3c-0.1,0-0.2-0.1-0.2-0.2c0-0.5-0.3-0.8-0.8-0.9c-0.1,0-0.3-0.1-0.2-0.3
		c0-0.1,0.2-0.1,0.3-0.1C13.7,7.1,14.3,7.8,14.3,8.3z"/>
</g>
</svg>
