<?xml version="1.0" encoding="utf-8"?>
<!-- Generator: Adobe Illustrator 18.1.0, SVG Export Plug-In . SVG Version: 6.00 Build 0)  -->
<svg version="1.1" id="Layer_1" xmlns="http://www.w3.org/2000/svg" xmlns:xlink="http://www.w3.org/1999/xlink" x="0px" y="0px"
	 viewBox="0 0 25.5 20.3" style="enable-background:new 0 0 25.5 20.3;" xml:space="preserve">
<style type="text/css">
	.st0{fill:url(#SVGID_1_);}
	.st1{fill:#FFFFFF;}
</style>
<linearGradient id="SVGID_1_" gradientUnits="userSpaceOnUse" x1="12.7559" y1="20.2591" x2="12.7559" y2="1.059807e-004">
	<stop  offset="0" style="stop-color:#58AF33"/>
	<stop  offset="0.5" style="stop-color:#0B9636"/>
	<stop  offset="1" style="stop-color:#58AF33"/>
</linearGradient>
<path class="st0" d="M25.5,17.3c0,0,0,3-3,3H3c0,0-3,0-3-3V3c0,0,0-3,3-3h19.5c0,0,3,0,3,3V17.3z"/>
<g>
	<path class="st1" d="M12.9,3.3c-3.7,0-6.7,3-6.7,6.7c0,1.8,1,3.5,1,3.5L6,17l3.7-1.2c0,0,1.4,0.8,3.2,0.8c3.7,0,6.7-3,6.7-6.7
		C19.6,6.3,16.6,3.3,12.9,3.3z M12.9,15.6c-1.7,0-3.1-0.9-3.1-0.9l-2.1,0.7l0.7-2c0,0-1.1-1.5-1.1-3.3c0-3.1,2.5-5.6,5.6-5.6
		c3.1,0,5.6,2.5,5.6,5.6C18.5,13.1,16,15.6,12.9,15.6z"/>
	<path class="st1" d="M10.3,7c0,0,0.2-0.1,0.3-0.1c0.1,0,0.5,0,0.5,0s0.1,0,0.2,0.2c0.1,0.1,0.5,1.2,0.5,1.3c0,0.1,0.1,0.3,0,0.5
		c-0.1,0.2-0.4,0.5-0.4,0.5s-0.1,0.1,0,0.3c0.1,0.2,0.4,0.7,0.9,1.1c0.5,0.4,1,0.7,1.3,0.8c0.3,0.1,0.3,0,0.4-0.2
		c0.1-0.1,0.4-0.6,0.4-0.6s0.1-0.2,0.3-0.1c0.2,0.1,1.3,0.6,1.3,0.6s0.1,0,0.1,0.2c0,0.1,0.1,0.6-0.3,1c-0.4,0.4-1.2,0.6-1.6,0.5
		c-0.4-0.1-1.7-0.5-2.6-1.3s-1.6-1.7-1.8-2.3c-0.3-0.6-0.3-1-0.3-1.2S9.8,7.4,10.3,7z"/>
</g>
</svg>
