<svg xmlns="http://www.w3.org/2000/svg" viewBox="0 292.8 595.3 256.2"><path fill="#D2232A" d="M0 292.8h595.3V549H0z"/><path fill="#FFF" d="M159.5 340.5v54h6.1v30.2h-19.1v-13.2h-28.4v13.2H97.6v-30.4h5.1c3.5-6.9 5.1-12.4 5.9-17.7.6-2.8 2-11.2 2-26.2v-10.1h48.9v.2zm-32.6 22.3c0 3.9-.4 11.4-2 18.7-.6 3-1.6 6.7-4.1 13h17.9V357h-12v5.7h.2zm93.5 31.3c-.8 3.7-2.8 8.9-8.5 13-6.1 4.5-13.2 5.3-18.5 5.3-6.5 0-13.4-1.2-19.5-7.1-4.3-4.1-8.3-10.8-8.3-20.5 0-10.8 4.7-17.5 9.1-21.1 6.5-5.5 14.2-6.3 19.1-6.3 5.3 0 13.2 1.2 19.5 7.9 6.9 7.3 7.3 16.4 7.3 20.9v3.2h-34.5c-.2 2.6.6 5.3 1.8 7.1 1.2 1.8 3.2 3.2 6.3 3.2 3 0 4.7-1.2 5.5-2 1-1 2-2.6 2-4.9l18.7 1.3zm-19.5-14.9c.2-2.4-.4-5.1-1.8-6.7-1.8-2.2-4.1-2.4-5.3-2.4-1.4 0-3.5.2-5.5 2.4-1.4 1.6-2.4 3.9-2.2 6.7h14.8zm72.5-20.7v52.8h-19.1v-39h-7.7c-.4 7.9-.6 12.6-1.2 16.8-1.2 9.9-3.2 14.8-7.5 18.7-3.4 3-6.7 4.1-11.4 4.1-2 0-4.1-.2-6.1-.6v-13.8h1.6c1.6-.2 4.1-.6 5.9-3.5 1.6-2.6 2.6-6.5 3.2-16.6.4-4.5.4-9.5.4-13.8v-5.1h41.9zm48.5 6.1c5.5 5.1 8.5 12.8 8.5 20.3s-3 15.2-8.5 20.3c-4.1 3.7-10.1 7.1-18.9 7.1-8.9 0-14.8-3.4-18.9-7.1-5.5-5.1-8.5-12.8-8.5-20.3s3-15.2 8.5-20.3c4.1-3.7 10.1-7.1 18.9-7.1 8.8 0 14.7 3.3 18.9 7.1m-13.4 31.3c1.2-2.6 1.4-5.7 1.4-11s-.2-8.7-1.4-11c-1.2-2.6-3-3.7-5.5-3.7-2.4 0-4.3 1.2-5.5 3.7-1.2 2.6-1.4 5.7-1.4 11 0 4.5.2 8.1 1.4 11 1.2 2.4 2.6 3.7 5.5 3.7 2.3.3 4.3-.9 5.5-3.7m56.2-37.4c4.3 0 9.1.2 12.8 3 2.4 1.8 4.7 5.1 4.7 10.1 0 3.4-1.2 6.3-3 8.3-1.6 1.8-4.1 3.2-6.9 3.5v.2c3.2.2 6.5 1.6 8.9 3.7 2.4 2.4 3.7 5.7 3.7 9.1 0 4.9-2.4 9.3-5.5 11.6-4.3 3.4-10.1 3.4-14.6 3.4h-31.9v-52.8h31.8zm-12.1 21.1h3.5c1.6 0 3.4-.2 4.7-1.2.8-.8 1.8-2 1.8-4.1 0-2.4-1.4-3.5-2.2-4.1-1.6-1-3.2-1-4.5-1h-3.5v10.4h.2zm0 21.4h5.3c1.6 0 3.2-.2 4.7-1.6 1-1 1.6-2.6 1.6-3.9 0-1.8-.8-3.5-2.2-4.5-1.2-.8-2.8-1.2-4.1-1.2h-5.3V401zm78.3-36.4c5.5 5.1 8.5 12.8 8.5 20.3s-3 15.2-8.5 20.3c-4.1 3.7-10.1 7.1-18.9 7.1-8.9 0-14.8-3.4-18.9-7.1-5.5-5.1-8.5-12.8-8.5-20.3s3-15.2 8.5-20.3c3.9-3.7 10.1-7.1 18.9-7.1 8.8 0 14.9 3.3 18.9 7.1m-13.4 31.3c1.2-2.6 1.4-5.7 1.4-11s-.2-8.7-1.4-11c-1.2-2.6-3-3.7-5.5-3.7-2.4 0-4.3 1.2-5.5 3.7s-1.4 5.7-1.4 11c0 4.5.2 8.1 1.4 11 1.2 2.4 2.6 3.7 5.5 3.7 2.5.3 4.3-.9 5.5-3.7m44.1-37.4v23.1c0 1.4 0 3.5-.4 5.1 1.2-1.6 12.4-24.6 12.4-24.6v-3.7h19.5v52.8h-19.5v-21.7c0-1-.4-2.6 0-3.9-.8 1.8-12 25.6-12 25.6h-20.1v-52.6h20.1zm1-23.5c0 1.2.2 2.8.8 3.7.6 1 1.6 2.4 3.9 2.4 2.4 0 3.4-1.4 3.9-2.4.6-1 .8-2.8.8-3.7h14.2c-.2 5.1-2.6 8.5-4.7 10.4-4.9 4.5-13 4.5-14.2 4.5-1.2 0-9.3-.2-14.2-4.5-2.2-2-4.5-5.3-4.7-10.4h14.2zm-344.5 95.4v19.9c1.4 0 4.9-.6 5.9-1.4 1.4-1.4 2-3.7 2.6-5.5.8-3.2 1.2-5.7 2-7.9 1.2-3 2.6-4.3 4.1-4.9h18.1c-1.4 1.4-2.6 3-3.4 5.3-.6 1.6-.2 1-2.8 9.1-.8 2.4-1.6 5.1-3.5 7.3s-3.9 2.6-6.7 3v.2c3.2.6 5.3 1.6 7.7 4.1 2.6 2.8 3.5 5.7 4.3 8.7l1.6 6.1c1.6 5.7 2 8.5 4.9 11.4h-20.7c-1.2-.6-2-1.4-2.8-2.8-1.4-2.6-1.8-5.5-2.4-8.3-1.6-7.3-2.4-8.7-3-9.5-1.2-1.4-5.1-1.6-6.3-1.6v21.9H97.6v-55.2l20.5.1zm72.3 0c4.5 0 9.5.2 13.2 3.2 2.6 1.8 4.9 5.3 4.9 10.4 0 3.4-1.2 6.5-3.2 8.7-1.8 1.8-4.1 3.4-7.1 3.7v.2c3.4.2 6.9 1.6 9.3 3.9s3.9 5.9 3.9 9.5c0 5.1-2.4 9.7-5.7 12-4.5 3.5-10.4 3.5-15.2 3.5h-33.7v-55.2h33.6v.1zm-12.6 21.9h3.7c1.8 0 3.5-.2 4.9-1.4.8-.8 2-2 2-4.3 0-2.6-1.4-3.7-2.2-4.3-1.6-1-3.4-1-4.7-1h-3.7v11zm0 22.5h5.5c1.6 0 3.4-.2 4.9-1.6 1-1 1.8-2.6 1.8-4.1 0-1.8-.8-3.7-2.4-4.7-1.2-.8-3-1.2-4.3-1.2h-5.5v11.6zm38.6-28.2c1.8-7.1 5.9-10.8 8.9-12.8 5.9-3.9 13.4-4.3 19.3-4.3 8.9 0 18.9 1 23.5 9.7 2.2 4.1 2.2 8.7 2.2 13v21.5c0 3.2 0 6.5 1.6 12H252c-.4-1.4-.8-3.7-.8-7.7-2.2 3.4-6.9 8.7-17.5 8.7-14 0-18.9-8.9-18.9-16.2 0-4.9 2-9.9 6.1-13.2 6.3-5.1 17.5-6.7 25.4-7.3l3.9-.4v-.8c0-1 0-3.4-1.2-4.7-.8-.8-2.4-1.6-5.1-1.6-5.7 0-7.7 3.2-8.1 5.9l-19.4-1.8zm30.4 13.6c-5.1.8-7.3 2.2-8.1 2.8-2.2 1.6-3 3.9-3 5.5 0 2.8 2 4.9 5.7 4.9 7.9 0 8.5-6.7 8.5-10.6v-3.2l-3.1.6zm28.8 42.7v-72.5h19.1v7.9h.2c1.2-2.2 3-4.3 4.9-5.9 3-2.2 6.9-3.2 11.2-3.2 6.5 0 10.6 2.8 13.8 7.5 4.5 6.5 5.1 14.8 5.1 20.7 0 7.1-1 15.2-5.5 21.3-4.5 6.3-10.1 7.9-14.8 7.9-3 0-5.9-.8-8.1-1.8-2.8-1.4-4.3-3.2-5.5-5.1h-.2v23.5h-20.3v-.3zm20.5-39.6c0 3 .2 5.3 1.2 7.1.6.8 1.8 3 4.7 3 2.4 0 4.5-1.2 5.9-4.7 1-2.4 1.2-5.5 1.2-11 0-5.9-.6-8.7-1.4-10.8-1.4-3-3.5-3.9-5.7-3.9-1.6 0-3 .6-3.9 1.6-1.8 1.8-2 4.7-2 6.7v12zm84.3-32.9v14.4h-14.6v40.8h-20.7v-40.8h-14.5v-14.4zm1.8 14.6c1.8-5.5 5.3-9.3 8.3-11.2 5.9-3.9 13.4-4.3 19.3-4.3 8.9 0 18.9 1 23.5 9.7 2.2 4.1 2.2 8.7 2.2 13v21.5c0 3.2 0 6.5 1.6 12h-19.9c-.4-1.4-.8-3.7-.8-7.7-2.2 3.4-6.9 8.7-17.5 8.7-14 0-18.9-8.9-18.9-16.2 0-4.9 2-9.9 6.1-13.2 6.3-5.1 17.5-6.7 25.4-7.3l3.9-.4v-.8c0-1 0-3.4-1.2-4.7-.8-.8-2.4-1.6-5.1-1.6-5.7 0-7.7 3.2-8.1 5.9l-18.8-3.4zm29.8 15.2c-5.1.8-7.3 2.2-8.1 2.8-2.2 1.6-3 3.9-3 5.5 0 2.8 2 4.9 5.7 4.9 7.9 0 8.5-6.7 8.5-10.6v-3.2l-3.1.6zm81.2-29.8v55.2h-19.5v-40.8h-7.3c-.4 8.3-.6 13.2-1.2 17.5-1.2 10.2-3.4 15.6-7.9 19.7-3.5 3.2-7.1 4.3-12 4.3-2.2 0-4.1-.2-6.3-.6v-14.4h1.6c1.8-.2 4.3-.6 6.3-3.7 1.6-2.6 2.6-6.7 3.4-17.3.4-4.7.4-9.9.4-14.4v-5.3h42.6v-.2z"/></svg>